<svg id="svgs" width="485" height="302" viewBox="0 0 485 302" fill="none" xmlns="http://www.w3.org/2000/svg">
<mask id="path-1-outside-1" maskUnits="userSpaceOnUse" x="0.902771" y="0.839996" width="484" height="302" fill="black">
<rect fill="white" x="0.902771" y="0.839996" width="484" height="302"/>
<path d="M159.458 70.96C153.25 70.96 147.874 69.616 143.33 66.928C138.85 64.24 135.394 60.368 132.962 55.312C130.594 50.256 129.41 44.24 129.41 37.264C129.41 30.032 130.69 23.76 133.25 18.448C135.81 13.136 139.426 9.04 144.098 6.16C148.834 3.28 154.402 1.84 160.802 1.84C166.946 1.84 172.258 3.184 176.738 5.872C181.218 8.56 184.642 12.432 187.01 17.488C189.442 22.544 190.658 28.56 190.658 35.536C190.658 42.704 189.378 48.976 186.818 54.352C184.322 59.664 180.706 63.76 175.97 66.64C171.298 69.52 165.794 70.96 159.458 70.96ZM159.554 59.728C165.25 59.728 169.57 57.712 172.514 53.68C175.458 49.584 176.93 43.536 176.93 35.536C176.93 20.56 171.49 13.072 160.61 13.072C154.914 13.072 150.594 15.12 147.65 19.216C144.706 23.248 143.234 29.2 143.234 37.072C143.234 52.176 148.674 59.728 159.554 59.728Z"/>
<path d="M258.148 2.8C260.9 2.8 262.276 4.048 262.276 6.544V10.288C262.276 12.784 260.9 14.032 258.148 14.032H256.42V43.888C256.42 52.464 254.212 59.12 249.796 63.856C245.38 68.592 239.076 70.96 230.884 70.96C222.756 70.96 216.484 68.624 212.068 63.952C207.716 59.28 205.54 52.752 205.54 44.368V14.032H203.812C201.06 14.032 199.684 12.784 199.684 10.288V6.544C199.684 4.048 201.06 2.8 203.812 2.8H220.804C222.02 2.8 223.012 3.12 223.78 3.75999C224.548 4.33599 224.932 5.264 224.932 6.544V10.288C224.932 11.568 224.548 12.528 223.78 13.168C223.012 13.744 222.02 14.032 220.804 14.032H218.98V44.176C218.98 54.544 222.98 59.728 230.98 59.728C238.98 59.728 242.98 54.48 242.98 43.984V14.032H241.252C239.972 14.032 238.948 13.744 238.18 13.168C237.412 12.528 237.028 11.568 237.028 10.288V6.544C237.028 5.264 237.412 4.33599 238.18 3.75999C238.948 3.12 239.972 2.8 241.252 2.8H258.148Z"/>
<path d="M327.692 58.768C330.508 58.768 331.916 60.016 331.916 62.512V66.256C331.916 67.536 331.532 68.496 330.764 69.136C329.996 69.712 328.972 70 327.692 70H316.748C316.044 70 315.372 69.84 314.732 69.52C314.156 69.136 313.708 68.624 313.388 67.984L303.98 51.376C302.636 49.072 301.516 47.408 300.62 46.384C299.788 45.296 298.828 44.592 297.74 44.272C296.716 43.888 295.276 43.696 293.42 43.696H290.732V58.768H292.46C295.212 58.768 296.588 60.016 296.588 62.512V66.256C296.588 68.752 295.212 70 292.46 70H275.564C274.284 70 273.26 69.712 272.492 69.136C271.724 68.496 271.34 67.536 271.34 66.256V62.512C271.34 61.232 271.724 60.304 272.492 59.728C273.26 59.088 274.284 58.768 275.564 58.768H277.292V14.032H275.564C274.284 14.032 273.26 13.744 272.492 13.168C271.724 12.528 271.34 11.568 271.34 10.288V6.544C271.34 5.264 271.724 4.33599 272.492 3.75999C273.26 3.12 274.252 2.8 275.468 2.8H298.988C307.244 2.8 313.484 4.432 317.708 7.696C321.932 10.96 324.044 15.792 324.044 22.192C324.044 26.608 322.86 30.384 320.492 33.52C318.124 36.592 314.828 38.832 310.604 40.24C311.756 40.752 312.78 41.552 313.676 42.64C314.636 43.664 315.628 45.072 316.652 46.864L323.276 58.768H327.692ZM297.836 32.464C302.188 32.464 305.356 31.664 307.34 30.064C309.324 28.4 310.316 25.84 310.316 22.384C310.316 19.568 309.356 17.488 307.436 16.144C305.516 14.736 302.54 14.032 298.508 14.032H290.732V32.464H297.836Z"/>
<path d="M116.803 148.232C121.155 149.192 124.547 151.112 126.979 153.992C129.411 156.872 130.627 160.392 130.627 164.552C130.627 170.952 128.131 175.976 123.139 179.624C118.211 183.208 111.395 185 102.691 185H80.6111C79.3311 185 78.3071 184.712 77.5391 184.136C76.7711 183.496 76.3871 182.536 76.3871 181.256V177.512C76.3871 176.232 76.7711 175.304 77.5391 174.728C78.3071 174.088 79.3311 173.768 80.6111 173.768H82.3391V129.032H80.6111C79.3311 129.032 78.3071 128.744 77.5391 128.168C76.7711 127.528 76.3871 126.568 76.3871 125.288V121.544C76.3871 120.264 76.7711 119.336 77.5391 118.76C78.3071 118.12 79.2991 117.8 80.5151 117.8H102.883C111.203 117.8 117.379 119.112 121.411 121.736C125.443 124.296 127.459 128.232 127.459 133.544C127.459 136.936 126.531 139.88 124.675 142.376C122.883 144.872 120.259 146.824 116.803 148.232ZM95.7791 129.032V144.872H101.443C105.603 144.872 108.675 144.2 110.659 142.856C112.707 141.448 113.731 139.304 113.731 136.424C113.731 133.736 112.835 131.848 111.043 130.76C109.251 129.608 106.211 129.032 101.923 129.032H95.7791ZM101.539 173.768C107.043 173.768 110.947 173.032 113.251 171.56C115.619 170.088 116.803 167.656 116.803 164.264C116.803 161.448 115.779 159.4 113.731 158.12C111.747 156.776 108.579 156.104 104.227 156.104H95.7791V173.768H101.539Z"/>
<path d="M171.036 185.96C164.828 185.96 159.452 184.616 154.908 181.928C150.428 179.24 146.972 175.368 144.54 170.312C142.172 165.256 140.988 159.24 140.988 152.264C140.988 145.032 142.268 138.76 144.828 133.448C147.388 128.136 151.004 124.04 155.676 121.16C160.412 118.28 165.98 116.84 172.38 116.84C178.524 116.84 183.836 118.184 188.316 120.872C192.796 123.56 196.22 127.432 198.588 132.488C201.02 137.544 202.236 143.56 202.236 150.536C202.236 157.704 200.956 163.976 198.396 169.352C195.9 174.664 192.284 178.76 187.548 181.64C182.876 184.52 177.372 185.96 171.036 185.96ZM171.132 174.728C176.828 174.728 181.148 172.712 184.092 168.68C187.036 164.584 188.508 158.536 188.508 150.536C188.508 135.56 183.068 128.072 172.188 128.072C166.492 128.072 162.172 130.12 159.228 134.216C156.284 138.248 154.812 144.2 154.812 152.072C154.812 167.176 160.252 174.728 171.132 174.728Z"/>
<path d="M268.088 173.768C270.84 173.768 272.216 175.016 272.216 177.512V181.256C272.216 183.752 270.84 185 268.088 185H250.712C249.496 185 248.504 184.712 247.736 184.136C246.968 183.496 246.584 182.536 246.584 181.256V177.512C246.584 176.232 246.968 175.304 247.736 174.728C248.504 174.088 249.496 173.768 250.712 173.768H252.536L249.08 164.072H228.056L224.6 173.768H226.328C227.608 173.768 228.632 174.088 229.4 174.728C230.168 175.304 230.552 176.232 230.552 177.512V181.256C230.552 182.536 230.168 183.496 229.4 184.136C228.632 184.712 227.608 185 226.328 185H211.064C209.848 185 208.856 184.712 208.088 184.136C207.32 183.496 206.936 182.536 206.936 181.256V177.512C206.936 176.232 207.32 175.304 208.088 174.728C208.856 174.088 209.848 173.768 211.064 173.768H212.888L232.184 120.776C232.504 119.816 233.048 119.08 233.816 118.568C234.584 118.056 235.448 117.8 236.408 117.8H242.648C243.608 117.8 244.472 118.056 245.24 118.568C246.008 119.08 246.552 119.816 246.872 120.776L266.36 173.768H268.088ZM245.048 152.744L238.52 134.312L231.992 152.744H245.048Z"/>
<path d="M337.114 173.768C339.93 173.768 341.338 175.016 341.338 177.512V181.256C341.338 182.536 340.954 183.496 340.186 184.136C339.418 184.712 338.394 185 337.114 185H326.17C325.466 185 324.794 184.84 324.154 184.52C323.578 184.136 323.13 183.624 322.81 182.984L313.402 166.376C312.058 164.072 310.938 162.408 310.042 161.384C309.21 160.296 308.25 159.592 307.162 159.272C306.138 158.888 304.698 158.696 302.842 158.696H300.154V173.768H301.882C304.634 173.768 306.01 175.016 306.01 177.512V181.256C306.01 183.752 304.634 185 301.882 185H284.986C283.706 185 282.682 184.712 281.914 184.136C281.146 183.496 280.762 182.536 280.762 181.256V177.512C280.762 176.232 281.146 175.304 281.914 174.728C282.682 174.088 283.706 173.768 284.986 173.768H286.714V129.032H284.986C283.706 129.032 282.682 128.744 281.914 128.168C281.146 127.528 280.762 126.568 280.762 125.288V121.544C280.762 120.264 281.146 119.336 281.914 118.76C282.682 118.12 283.674 117.8 284.89 117.8H308.41C316.666 117.8 322.906 119.432 327.13 122.696C331.354 125.96 333.466 130.792 333.466 137.192C333.466 141.608 332.282 145.384 329.914 148.52C327.546 151.592 324.25 153.832 320.026 155.24C321.178 155.752 322.202 156.552 323.098 157.64C324.058 158.664 325.05 160.072 326.074 161.864L332.698 173.768H337.114ZM307.258 147.464C311.61 147.464 314.778 146.664 316.762 145.064C318.746 143.4 319.738 140.84 319.738 137.384C319.738 134.568 318.778 132.488 316.858 131.144C314.938 129.736 311.962 129.032 307.93 129.032H300.154V147.464H307.258Z"/>
<path d="M377.22 117.8C387.46 117.8 395.396 120.552 401.028 126.056C406.66 131.56 409.476 139.368 409.476 149.48C409.476 156.456 408.132 162.632 405.444 168.008C402.82 173.384 399.076 177.576 394.212 180.584C389.348 183.528 383.78 185 377.508 185H353.892C352.612 185 351.588 184.712 350.82 184.136C350.052 183.496 349.668 182.536 349.668 181.256V177.512C349.668 176.232 350.052 175.304 350.82 174.728C351.588 174.088 352.612 173.768 353.892 173.768H355.62V129.032H353.892C352.612 129.032 351.588 128.744 350.82 128.168C350.052 127.528 349.668 126.568 349.668 125.288V121.544C349.668 120.264 350.052 119.336 350.82 118.76C351.588 118.12 352.58 117.8 353.796 117.8H377.22ZM376.836 173.768C382.788 173.768 387.428 171.688 390.756 167.528C394.084 163.368 395.748 157.544 395.748 150.056C395.748 143.016 394.18 137.768 391.044 134.312C387.908 130.792 383.14 129.032 376.74 129.032H369.06V173.768H376.836Z"/>
<path d="M72.5588 244.032V288.768H74.2868C75.5668 288.768 76.5908 289.088 77.3588 289.728C78.1268 290.304 78.5108 291.232 78.5108 292.512V296.256C78.5108 297.536 78.1268 298.496 77.3588 299.136C76.5908 299.712 75.5668 300 74.2868 300H57.3908C54.6388 300 53.2628 298.752 53.2628 296.256V292.512C53.2628 290.016 54.6388 288.768 57.3908 288.768H59.1188V246.336L44.8148 278.592C44.1108 280.32 42.9268 281.184 41.2628 281.184H37.2308C35.5668 281.184 34.3828 280.32 33.6788 278.592L19.3748 246.336V288.768H21.1028C23.8548 288.768 25.2308 290.016 25.2308 292.512V296.256C25.2308 298.752 23.8548 300 21.1028 300H6.12677C4.84677 300 3.82276 299.712 3.05476 299.136C2.28676 298.496 1.90277 297.536 1.90277 296.256V292.512C1.90277 291.232 2.28676 290.304 3.05476 289.728C3.82276 289.088 4.84677 288.768 6.12677 288.768H7.85477V244.032H6.12677C4.84677 244.032 3.82276 243.744 3.05476 243.168C2.28676 242.528 1.90277 241.568 1.90277 240.288V236.544C1.90277 235.264 2.28676 234.336 3.05476 233.76C3.82276 233.12 4.81476 232.8 6.03076 232.8H24.4628C26.3188 232.8 27.5668 233.664 28.2068 235.392L40.3988 263.04L52.4948 235.392C53.1988 233.664 54.4468 232.8 56.2388 232.8H74.2868C75.5668 232.8 76.5908 233.12 77.3588 233.76C78.1268 234.336 78.5108 235.264 78.5108 236.544V240.288C78.5108 241.568 78.1268 242.528 77.3588 243.168C76.5908 243.744 75.5668 244.032 74.2868 244.032H72.5588Z"/>
<path d="M136.903 278.112C138.247 278.112 139.207 278.496 139.783 279.264C140.423 280.032 140.743 281.024 140.743 282.24V295.008C140.743 296.416 140.231 297.6 139.207 298.56C138.247 299.52 137.031 300 135.559 300H93.1268C91.8468 300 90.8228 299.712 90.0548 299.136C89.2868 298.496 88.9028 297.536 88.9028 296.256V292.512C88.9028 291.232 89.2868 290.304 90.0548 289.728C90.8228 289.088 91.8468 288.768 93.1268 288.768H94.8548V244.032H93.1268C91.8468 244.032 90.8228 243.744 90.0548 243.168C89.2868 242.528 88.9028 241.568 88.9028 240.288V236.544C88.9028 235.264 89.2868 234.336 90.0548 233.76C90.8228 233.12 91.8148 232.8 93.0308 232.8H134.983C136.455 232.8 137.671 233.28 138.631 234.24C139.655 235.2 140.167 236.416 140.167 237.888V248.832C140.167 250.112 139.847 251.136 139.207 251.904C138.631 252.672 137.703 253.056 136.423 253.056H132.679C131.399 253.056 130.439 252.672 129.799 251.904C129.223 251.136 128.935 250.112 128.935 248.832V244.032H108.295V259.584H124.327C125.543 259.584 126.535 260 127.303 260.832C128.135 261.6 128.551 262.56 128.551 263.712V266.688C128.551 267.904 128.135 268.896 127.303 269.664C126.535 270.432 125.543 270.816 124.327 270.816H108.295V288.768H129.415V282.24C129.415 281.024 129.703 280.032 130.279 279.264C130.919 278.496 131.911 278.112 133.255 278.112H136.903Z"/>
<path d="M222.84 244.032V288.768H224.568C225.848 288.768 226.872 289.088 227.64 289.728C228.408 290.304 228.792 291.232 228.792 292.512V296.256C228.792 297.536 228.408 298.496 227.64 299.136C226.872 299.712 225.848 300 224.568 300H207.672C204.92 300 203.544 298.752 203.544 296.256V292.512C203.544 290.016 204.92 288.768 207.672 288.768H209.4V246.336L195.096 278.592C194.392 280.32 193.208 281.184 191.544 281.184H187.512C185.848 281.184 184.664 280.32 183.96 278.592L169.656 246.336V288.768H171.384C174.136 288.768 175.512 290.016 175.512 292.512V296.256C175.512 298.752 174.136 300 171.384 300H156.408C155.128 300 154.104 299.712 153.336 299.136C152.568 298.496 152.184 297.536 152.184 296.256V292.512C152.184 291.232 152.568 290.304 153.336 289.728C154.104 289.088 155.128 288.768 156.408 288.768H158.136V244.032H156.408C155.128 244.032 154.104 243.744 153.336 243.168C152.568 242.528 152.184 241.568 152.184 240.288V236.544C152.184 235.264 152.568 234.336 153.336 233.76C154.104 233.12 155.096 232.8 156.312 232.8H174.744C176.6 232.8 177.848 233.664 178.488 235.392L190.68 263.04L202.776 235.392C203.48 233.664 204.728 232.8 206.52 232.8H224.568C225.848 232.8 226.872 233.12 227.64 233.76C228.408 234.336 228.792 235.264 228.792 236.544V240.288C228.792 241.568 228.408 242.528 227.64 243.168C226.872 243.744 225.848 244.032 224.568 244.032H222.84Z"/>
<path d="M279.6 263.232C283.952 264.192 287.344 266.112 289.776 268.992C292.208 271.872 293.424 275.392 293.424 279.552C293.424 285.952 290.928 290.976 285.936 294.624C281.008 298.208 274.192 300 265.488 300H243.408C242.128 300 241.104 299.712 240.336 299.136C239.568 298.496 239.184 297.536 239.184 296.256V292.512C239.184 291.232 239.568 290.304 240.336 289.728C241.104 289.088 242.128 288.768 243.408 288.768H245.136V244.032H243.408C242.128 244.032 241.104 243.744 240.336 243.168C239.568 242.528 239.184 241.568 239.184 240.288V236.544C239.184 235.264 239.568 234.336 240.336 233.76C241.104 233.12 242.096 232.8 243.312 232.8H265.68C274 232.8 280.176 234.112 284.208 236.736C288.24 239.296 290.256 243.232 290.256 248.544C290.256 251.936 289.328 254.88 287.472 257.376C285.68 259.872 283.056 261.824 279.6 263.232ZM258.576 244.032V259.872H264.24C268.4 259.872 271.472 259.2 273.456 257.856C275.504 256.448 276.528 254.304 276.528 251.424C276.528 248.736 275.632 246.848 273.84 245.76C272.048 244.608 269.008 244.032 264.72 244.032H258.576ZM264.336 288.768C269.84 288.768 273.744 288.032 276.048 286.56C278.416 285.088 279.6 282.656 279.6 279.264C279.6 276.448 278.576 274.4 276.528 273.12C274.544 271.776 271.376 271.104 267.024 271.104H258.576V288.768H264.336Z"/>
<path d="M351.497 278.112C352.841 278.112 353.801 278.496 354.377 279.264C355.017 280.032 355.336 281.024 355.336 282.24V295.008C355.336 296.416 354.824 297.6 353.8 298.56C352.84 299.52 351.625 300 350.153 300H307.721C306.441 300 305.416 299.712 304.648 299.136C303.88 298.496 303.497 297.536 303.497 296.256V292.512C303.497 291.232 303.88 290.304 304.648 289.728C305.416 289.088 306.441 288.768 307.721 288.768H309.448V244.032H307.721C306.441 244.032 305.416 243.744 304.648 243.168C303.88 242.528 303.497 241.568 303.497 240.288V236.544C303.497 235.264 303.88 234.336 304.648 233.76C305.416 233.12 306.409 232.8 307.625 232.8H349.577C351.049 232.8 352.264 233.28 353.224 234.24C354.248 235.2 354.76 236.416 354.76 237.888V248.832C354.76 250.112 354.44 251.136 353.8 251.904C353.224 252.672 352.296 253.056 351.016 253.056H347.273C345.993 253.056 345.033 252.672 344.393 251.904C343.817 251.136 343.529 250.112 343.529 248.832V244.032H322.888V259.584H338.921C340.137 259.584 341.129 260 341.897 260.832C342.729 261.6 343.145 262.56 343.145 263.712V266.688C343.145 267.904 342.729 268.896 341.897 269.664C341.129 270.432 340.137 270.816 338.921 270.816H322.888V288.768H344.009V282.24C344.009 281.024 344.296 280.032 344.872 279.264C345.512 278.496 346.505 278.112 347.849 278.112H351.497Z"/>
<path d="M423.13 288.768C425.946 288.768 427.354 290.016 427.354 292.512V296.256C427.354 297.536 426.97 298.496 426.202 299.136C425.434 299.712 424.41 300 423.13 300H412.186C411.482 300 410.81 299.84 410.17 299.52C409.594 299.136 409.146 298.624 408.826 297.984L399.418 281.376C398.074 279.072 396.954 277.408 396.058 276.384C395.226 275.296 394.266 274.592 393.178 274.272C392.154 273.888 390.714 273.696 388.858 273.696H386.17V288.768H387.898C390.65 288.768 392.026 290.016 392.026 292.512V296.256C392.026 298.752 390.65 300 387.898 300H371.002C369.722 300 368.698 299.712 367.93 299.136C367.162 298.496 366.778 297.536 366.778 296.256V292.512C366.778 291.232 367.162 290.304 367.93 289.728C368.698 289.088 369.722 288.768 371.002 288.768H372.73V244.032H371.002C369.722 244.032 368.698 243.744 367.93 243.168C367.162 242.528 366.778 241.568 366.778 240.288V236.544C366.778 235.264 367.162 234.336 367.93 233.76C368.698 233.12 369.69 232.8 370.906 232.8H394.426C402.682 232.8 408.922 234.432 413.146 237.696C417.37 240.96 419.482 245.792 419.482 252.192C419.482 256.608 418.298 260.384 415.93 263.52C413.562 266.592 410.266 268.832 406.042 270.24C407.194 270.752 408.218 271.552 409.114 272.64C410.074 273.664 411.066 275.072 412.09 276.864L418.714 288.768H423.13ZM393.274 262.464C397.626 262.464 400.794 261.664 402.778 260.064C404.762 258.4 405.754 255.84 405.754 252.384C405.754 249.568 404.794 247.488 402.874 246.144C400.954 244.736 397.978 244.032 393.946 244.032H386.17V262.464H393.274Z"/>
<path d="M462.095 260.16C467.855 261.952 472.271 263.744 475.343 265.536C478.415 267.328 480.591 269.44 481.871 271.872C483.151 274.24 483.791 277.312 483.791 281.088C483.791 284.8 482.735 288.192 480.623 291.264C478.575 294.272 475.727 296.64 472.079 298.368C468.431 300.096 464.335 300.96 459.791 300.96C454.991 300.96 450.735 300.32 447.023 299.04C443.311 297.696 440.431 295.808 438.383 293.376C436.399 290.944 435.407 288.16 435.407 285.024C435.407 282.4 436.143 280.288 437.615 278.688C439.151 277.088 441.135 276.288 443.567 276.288C445.999 276.288 447.951 276.96 449.423 278.304C450.895 279.648 451.631 281.408 451.631 283.584C451.631 284.928 451.311 286.24 450.671 287.52C452.975 288.992 455.791 289.728 459.119 289.728C462.767 289.728 465.551 289.056 467.471 287.712C469.391 286.304 470.351 284.352 470.351 281.856C470.351 280.384 470.063 279.2 469.487 278.304C468.911 277.408 467.823 276.576 466.223 275.808C464.687 275.04 462.287 274.144 459.023 273.12C453.455 271.328 449.039 269.504 445.775 267.648C442.511 265.728 440.111 263.52 438.575 261.024C437.103 258.464 436.367 255.36 436.367 251.712C436.367 247.808 437.423 244.352 439.535 241.344C441.647 238.336 444.591 236 448.367 234.336C452.207 232.672 456.559 231.84 461.423 231.84C465.583 231.84 469.263 232.512 472.463 233.856C475.727 235.2 478.255 237.056 480.047 239.424C481.903 241.792 482.831 244.512 482.831 247.584C482.831 250.208 482.063 252.32 480.527 253.92C478.991 255.52 477.007 256.32 474.575 256.32C472.207 256.32 470.255 255.648 468.719 254.304C467.247 252.96 466.511 251.2 466.511 249.024C466.511 247.68 466.831 246.368 467.471 245.088C466.127 243.744 463.695 243.072 460.175 243.072C457.039 243.072 454.543 243.776 452.687 245.184C450.831 246.528 449.903 248.384 449.903 250.752C449.903 252.288 450.223 253.568 450.863 254.592C451.567 255.552 452.751 256.448 454.415 257.28C456.143 258.112 458.703 259.072 462.095 260.16Z"/>
</mask>
<path d="M159.458 70.96C153.25 70.96 147.874 69.616 143.33 66.928C138.85 64.24 135.394 60.368 132.962 55.312C130.594 50.256 129.41 44.24 129.41 37.264C129.41 30.032 130.69 23.76 133.25 18.448C135.81 13.136 139.426 9.04 144.098 6.16C148.834 3.28 154.402 1.84 160.802 1.84C166.946 1.84 172.258 3.184 176.738 5.872C181.218 8.56 184.642 12.432 187.01 17.488C189.442 22.544 190.658 28.56 190.658 35.536C190.658 42.704 189.378 48.976 186.818 54.352C184.322 59.664 180.706 63.76 175.97 66.64C171.298 69.52 165.794 70.96 159.458 70.96ZM159.554 59.728C165.25 59.728 169.57 57.712 172.514 53.68C175.458 49.584 176.93 43.536 176.93 35.536C176.93 20.56 171.49 13.072 160.61 13.072C154.914 13.072 150.594 15.12 147.65 19.216C144.706 23.248 143.234 29.2 143.234 37.072C143.234 52.176 148.674 59.728 159.554 59.728Z" stroke="#FF3F6D" stroke-width="2" mask="url(#path-1-outside-1)"/>
<path d="M258.148 2.8C260.9 2.8 262.276 4.048 262.276 6.544V10.288C262.276 12.784 260.9 14.032 258.148 14.032H256.42V43.888C256.42 52.464 254.212 59.12 249.796 63.856C245.38 68.592 239.076 70.96 230.884 70.96C222.756 70.96 216.484 68.624 212.068 63.952C207.716 59.28 205.54 52.752 205.54 44.368V14.032H203.812C201.06 14.032 199.684 12.784 199.684 10.288V6.544C199.684 4.048 201.06 2.8 203.812 2.8H220.804C222.02 2.8 223.012 3.12 223.78 3.75999C224.548 4.33599 224.932 5.264 224.932 6.544V10.288C224.932 11.568 224.548 12.528 223.78 13.168C223.012 13.744 222.02 14.032 220.804 14.032H218.98V44.176C218.98 54.544 222.98 59.728 230.98 59.728C238.98 59.728 242.98 54.48 242.98 43.984V14.032H241.252C239.972 14.032 238.948 13.744 238.18 13.168C237.412 12.528 237.028 11.568 237.028 10.288V6.544C237.028 5.264 237.412 4.33599 238.18 3.75999C238.948 3.12 239.972 2.8 241.252 2.8H258.148Z" stroke="#FF3F6D" stroke-width="2" mask="url(#path-1-outside-1)"/>
<path d="M327.692 58.768C330.508 58.768 331.916 60.016 331.916 62.512V66.256C331.916 67.536 331.532 68.496 330.764 69.136C329.996 69.712 328.972 70 327.692 70H316.748C316.044 70 315.372 69.84 314.732 69.52C314.156 69.136 313.708 68.624 313.388 67.984L303.98 51.376C302.636 49.072 301.516 47.408 300.62 46.384C299.788 45.296 298.828 44.592 297.74 44.272C296.716 43.888 295.276 43.696 293.42 43.696H290.732V58.768H292.46C295.212 58.768 296.588 60.016 296.588 62.512V66.256C296.588 68.752 295.212 70 292.46 70H275.564C274.284 70 273.26 69.712 272.492 69.136C271.724 68.496 271.34 67.536 271.34 66.256V62.512C271.34 61.232 271.724 60.304 272.492 59.728C273.26 59.088 274.284 58.768 275.564 58.768H277.292V14.032H275.564C274.284 14.032 273.26 13.744 272.492 13.168C271.724 12.528 271.34 11.568 271.34 10.288V6.544C271.34 5.264 271.724 4.33599 272.492 3.75999C273.26 3.12 274.252 2.8 275.468 2.8H298.988C307.244 2.8 313.484 4.432 317.708 7.696C321.932 10.96 324.044 15.792 324.044 22.192C324.044 26.608 322.86 30.384 320.492 33.52C318.124 36.592 314.828 38.832 310.604 40.24C311.756 40.752 312.78 41.552 313.676 42.64C314.636 43.664 315.628 45.072 316.652 46.864L323.276 58.768H327.692ZM297.836 32.464C302.188 32.464 305.356 31.664 307.34 30.064C309.324 28.4 310.316 25.84 310.316 22.384C310.316 19.568 309.356 17.488 307.436 16.144C305.516 14.736 302.54 14.032 298.508 14.032H290.732V32.464H297.836Z" stroke="#FF3F6D" stroke-width="2" mask="url(#path-1-outside-1)"/>
<path d="M116.803 148.232C121.155 149.192 124.547 151.112 126.979 153.992C129.411 156.872 130.627 160.392 130.627 164.552C130.627 170.952 128.131 175.976 123.139 179.624C118.211 183.208 111.395 185 102.691 185H80.6111C79.3311 185 78.3071 184.712 77.5391 184.136C76.7711 183.496 76.3871 182.536 76.3871 181.256V177.512C76.3871 176.232 76.7711 175.304 77.5391 174.728C78.3071 174.088 79.3311 173.768 80.6111 173.768H82.3391V129.032H80.6111C79.3311 129.032 78.3071 128.744 77.5391 128.168C76.7711 127.528 76.3871 126.568 76.3871 125.288V121.544C76.3871 120.264 76.7711 119.336 77.5391 118.76C78.3071 118.12 79.2991 117.8 80.5151 117.8H102.883C111.203 117.8 117.379 119.112 121.411 121.736C125.443 124.296 127.459 128.232 127.459 133.544C127.459 136.936 126.531 139.88 124.675 142.376C122.883 144.872 120.259 146.824 116.803 148.232ZM95.7791 129.032V144.872H101.443C105.603 144.872 108.675 144.2 110.659 142.856C112.707 141.448 113.731 139.304 113.731 136.424C113.731 133.736 112.835 131.848 111.043 130.76C109.251 129.608 106.211 129.032 101.923 129.032H95.7791ZM101.539 173.768C107.043 173.768 110.947 173.032 113.251 171.56C115.619 170.088 116.803 167.656 116.803 164.264C116.803 161.448 115.779 159.4 113.731 158.12C111.747 156.776 108.579 156.104 104.227 156.104H95.7791V173.768H101.539Z" stroke="#FF3F6D" stroke-width="2" mask="url(#path-1-outside-1)"/>
<path d="M171.036 185.96C164.828 185.96 159.452 184.616 154.908 181.928C150.428 179.24 146.972 175.368 144.54 170.312C142.172 165.256 140.988 159.24 140.988 152.264C140.988 145.032 142.268 138.76 144.828 133.448C147.388 128.136 151.004 124.04 155.676 121.16C160.412 118.28 165.98 116.84 172.38 116.84C178.524 116.84 183.836 118.184 188.316 120.872C192.796 123.56 196.22 127.432 198.588 132.488C201.02 137.544 202.236 143.56 202.236 150.536C202.236 157.704 200.956 163.976 198.396 169.352C195.9 174.664 192.284 178.76 187.548 181.64C182.876 184.52 177.372 185.96 171.036 185.96ZM171.132 174.728C176.828 174.728 181.148 172.712 184.092 168.68C187.036 164.584 188.508 158.536 188.508 150.536C188.508 135.56 183.068 128.072 172.188 128.072C166.492 128.072 162.172 130.12 159.228 134.216C156.284 138.248 154.812 144.2 154.812 152.072C154.812 167.176 160.252 174.728 171.132 174.728Z" stroke="#FF3F6D" stroke-width="2" mask="url(#path-1-outside-1)"/>
<path d="M268.088 173.768C270.84 173.768 272.216 175.016 272.216 177.512V181.256C272.216 183.752 270.84 185 268.088 185H250.712C249.496 185 248.504 184.712 247.736 184.136C246.968 183.496 246.584 182.536 246.584 181.256V177.512C246.584 176.232 246.968 175.304 247.736 174.728C248.504 174.088 249.496 173.768 250.712 173.768H252.536L249.08 164.072H228.056L224.6 173.768H226.328C227.608 173.768 228.632 174.088 229.4 174.728C230.168 175.304 230.552 176.232 230.552 177.512V181.256C230.552 182.536 230.168 183.496 229.4 184.136C228.632 184.712 227.608 185 226.328 185H211.064C209.848 185 208.856 184.712 208.088 184.136C207.32 183.496 206.936 182.536 206.936 181.256V177.512C206.936 176.232 207.32 175.304 208.088 174.728C208.856 174.088 209.848 173.768 211.064 173.768H212.888L232.184 120.776C232.504 119.816 233.048 119.08 233.816 118.568C234.584 118.056 235.448 117.8 236.408 117.8H242.648C243.608 117.8 244.472 118.056 245.24 118.568C246.008 119.08 246.552 119.816 246.872 120.776L266.36 173.768H268.088ZM245.048 152.744L238.52 134.312L231.992 152.744H245.048Z" stroke="#FF3F6D" stroke-width="2" mask="url(#path-1-outside-1)"/>
<path d="M337.114 173.768C339.93 173.768 341.338 175.016 341.338 177.512V181.256C341.338 182.536 340.954 183.496 340.186 184.136C339.418 184.712 338.394 185 337.114 185H326.17C325.466 185 324.794 184.84 324.154 184.52C323.578 184.136 323.13 183.624 322.81 182.984L313.402 166.376C312.058 164.072 310.938 162.408 310.042 161.384C309.21 160.296 308.25 159.592 307.162 159.272C306.138 158.888 304.698 158.696 302.842 158.696H300.154V173.768H301.882C304.634 173.768 306.01 175.016 306.01 177.512V181.256C306.01 183.752 304.634 185 301.882 185H284.986C283.706 185 282.682 184.712 281.914 184.136C281.146 183.496 280.762 182.536 280.762 181.256V177.512C280.762 176.232 281.146 175.304 281.914 174.728C282.682 174.088 283.706 173.768 284.986 173.768H286.714V129.032H284.986C283.706 129.032 282.682 128.744 281.914 128.168C281.146 127.528 280.762 126.568 280.762 125.288V121.544C280.762 120.264 281.146 119.336 281.914 118.76C282.682 118.12 283.674 117.8 284.89 117.8H308.41C316.666 117.8 322.906 119.432 327.13 122.696C331.354 125.96 333.466 130.792 333.466 137.192C333.466 141.608 332.282 145.384 329.914 148.52C327.546 151.592 324.25 153.832 320.026 155.24C321.178 155.752 322.202 156.552 323.098 157.64C324.058 158.664 325.05 160.072 326.074 161.864L332.698 173.768H337.114ZM307.258 147.464C311.61 147.464 314.778 146.664 316.762 145.064C318.746 143.4 319.738 140.84 319.738 137.384C319.738 134.568 318.778 132.488 316.858 131.144C314.938 129.736 311.962 129.032 307.93 129.032H300.154V147.464H307.258Z" stroke="#FF3F6D" stroke-width="2" mask="url(#path-1-outside-1)"/>
<path d="M377.22 117.8C387.46 117.8 395.396 120.552 401.028 126.056C406.66 131.56 409.476 139.368 409.476 149.48C409.476 156.456 408.132 162.632 405.444 168.008C402.82 173.384 399.076 177.576 394.212 180.584C389.348 183.528 383.78 185 377.508 185H353.892C352.612 185 351.588 184.712 350.82 184.136C350.052 183.496 349.668 182.536 349.668 181.256V177.512C349.668 176.232 350.052 175.304 350.82 174.728C351.588 174.088 352.612 173.768 353.892 173.768H355.62V129.032H353.892C352.612 129.032 351.588 128.744 350.82 128.168C350.052 127.528 349.668 126.568 349.668 125.288V121.544C349.668 120.264 350.052 119.336 350.82 118.76C351.588 118.12 352.58 117.8 353.796 117.8H377.22ZM376.836 173.768C382.788 173.768 387.428 171.688 390.756 167.528C394.084 163.368 395.748 157.544 395.748 150.056C395.748 143.016 394.18 137.768 391.044 134.312C387.908 130.792 383.14 129.032 376.74 129.032H369.06V173.768H376.836Z" stroke="#FF3F6D" stroke-width="2" mask="url(#path-1-outside-1)"/>
<path d="M72.5588 244.032V288.768H74.2868C75.5668 288.768 76.5908 289.088 77.3588 289.728C78.1268 290.304 78.5108 291.232 78.5108 292.512V296.256C78.5108 297.536 78.1268 298.496 77.3588 299.136C76.5908 299.712 75.5668 300 74.2868 300H57.3908C54.6388 300 53.2628 298.752 53.2628 296.256V292.512C53.2628 290.016 54.6388 288.768 57.3908 288.768H59.1188V246.336L44.8148 278.592C44.1108 280.32 42.9268 281.184 41.2628 281.184H37.2308C35.5668 281.184 34.3828 280.32 33.6788 278.592L19.3748 246.336V288.768H21.1028C23.8548 288.768 25.2308 290.016 25.2308 292.512V296.256C25.2308 298.752 23.8548 300 21.1028 300H6.12677C4.84677 300 3.82276 299.712 3.05476 299.136C2.28676 298.496 1.90277 297.536 1.90277 296.256V292.512C1.90277 291.232 2.28676 290.304 3.05476 289.728C3.82276 289.088 4.84677 288.768 6.12677 288.768H7.85477V244.032H6.12677C4.84677 244.032 3.82276 243.744 3.05476 243.168C2.28676 242.528 1.90277 241.568 1.90277 240.288V236.544C1.90277 235.264 2.28676 234.336 3.05476 233.76C3.82276 233.12 4.81476 232.8 6.03076 232.8H24.4628C26.3188 232.8 27.5668 233.664 28.2068 235.392L40.3988 263.04L52.4948 235.392C53.1988 233.664 54.4468 232.8 56.2388 232.8H74.2868C75.5668 232.8 76.5908 233.12 77.3588 233.76C78.1268 234.336 78.5108 235.264 78.5108 236.544V240.288C78.5108 241.568 78.1268 242.528 77.3588 243.168C76.5908 243.744 75.5668 244.032 74.2868 244.032H72.5588Z" stroke="#FF3F6D" stroke-width="2" mask="url(#path-1-outside-1)"/>
<path d="M136.903 278.112C138.247 278.112 139.207 278.496 139.783 279.264C140.423 280.032 140.743 281.024 140.743 282.24V295.008C140.743 296.416 140.231 297.6 139.207 298.56C138.247 299.52 137.031 300 135.559 300H93.1268C91.8468 300 90.8228 299.712 90.0548 299.136C89.2868 298.496 88.9028 297.536 88.9028 296.256V292.512C88.9028 291.232 89.2868 290.304 90.0548 289.728C90.8228 289.088 91.8468 288.768 93.1268 288.768H94.8548V244.032H93.1268C91.8468 244.032 90.8228 243.744 90.0548 243.168C89.2868 242.528 88.9028 241.568 88.9028 240.288V236.544C88.9028 235.264 89.2868 234.336 90.0548 233.76C90.8228 233.12 91.8148 232.8 93.0308 232.8H134.983C136.455 232.8 137.671 233.28 138.631 234.24C139.655 235.2 140.167 236.416 140.167 237.888V248.832C140.167 250.112 139.847 251.136 139.207 251.904C138.631 252.672 137.703 253.056 136.423 253.056H132.679C131.399 253.056 130.439 252.672 129.799 251.904C129.223 251.136 128.935 250.112 128.935 248.832V244.032H108.295V259.584H124.327C125.543 259.584 126.535 260 127.303 260.832C128.135 261.6 128.551 262.56 128.551 263.712V266.688C128.551 267.904 128.135 268.896 127.303 269.664C126.535 270.432 125.543 270.816 124.327 270.816H108.295V288.768H129.415V282.24C129.415 281.024 129.703 280.032 130.279 279.264C130.919 278.496 131.911 278.112 133.255 278.112H136.903Z" stroke="#FF3F6D" stroke-width="2" mask="url(#path-1-outside-1)"/>
<path d="M222.84 244.032V288.768H224.568C225.848 288.768 226.872 289.088 227.64 289.728C228.408 290.304 228.792 291.232 228.792 292.512V296.256C228.792 297.536 228.408 298.496 227.64 299.136C226.872 299.712 225.848 300 224.568 300H207.672C204.92 300 203.544 298.752 203.544 296.256V292.512C203.544 290.016 204.92 288.768 207.672 288.768H209.4V246.336L195.096 278.592C194.392 280.32 193.208 281.184 191.544 281.184H187.512C185.848 281.184 184.664 280.32 183.96 278.592L169.656 246.336V288.768H171.384C174.136 288.768 175.512 290.016 175.512 292.512V296.256C175.512 298.752 174.136 300 171.384 300H156.408C155.128 300 154.104 299.712 153.336 299.136C152.568 298.496 152.184 297.536 152.184 296.256V292.512C152.184 291.232 152.568 290.304 153.336 289.728C154.104 289.088 155.128 288.768 156.408 288.768H158.136V244.032H156.408C155.128 244.032 154.104 243.744 153.336 243.168C152.568 242.528 152.184 241.568 152.184 240.288V236.544C152.184 235.264 152.568 234.336 153.336 233.76C154.104 233.12 155.096 232.8 156.312 232.8H174.744C176.6 232.8 177.848 233.664 178.488 235.392L190.68 263.04L202.776 235.392C203.48 233.664 204.728 232.8 206.52 232.8H224.568C225.848 232.8 226.872 233.12 227.64 233.76C228.408 234.336 228.792 235.264 228.792 236.544V240.288C228.792 241.568 228.408 242.528 227.64 243.168C226.872 243.744 225.848 244.032 224.568 244.032H222.84Z" stroke="#FF3F6D" stroke-width="2" mask="url(#path-1-outside-1)"/>
<path d="M279.6 263.232C283.952 264.192 287.344 266.112 289.776 268.992C292.208 271.872 293.424 275.392 293.424 279.552C293.424 285.952 290.928 290.976 285.936 294.624C281.008 298.208 274.192 300 265.488 300H243.408C242.128 300 241.104 299.712 240.336 299.136C239.568 298.496 239.184 297.536 239.184 296.256V292.512C239.184 291.232 239.568 290.304 240.336 289.728C241.104 289.088 242.128 288.768 243.408 288.768H245.136V244.032H243.408C242.128 244.032 241.104 243.744 240.336 243.168C239.568 242.528 239.184 241.568 239.184 240.288V236.544C239.184 235.264 239.568 234.336 240.336 233.76C241.104 233.12 242.096 232.8 243.312 232.8H265.68C274 232.8 280.176 234.112 284.208 236.736C288.24 239.296 290.256 243.232 290.256 248.544C290.256 251.936 289.328 254.88 287.472 257.376C285.68 259.872 283.056 261.824 279.6 263.232ZM258.576 244.032V259.872H264.24C268.4 259.872 271.472 259.2 273.456 257.856C275.504 256.448 276.528 254.304 276.528 251.424C276.528 248.736 275.632 246.848 273.84 245.76C272.048 244.608 269.008 244.032 264.72 244.032H258.576ZM264.336 288.768C269.84 288.768 273.744 288.032 276.048 286.56C278.416 285.088 279.6 282.656 279.6 279.264C279.6 276.448 278.576 274.4 276.528 273.12C274.544 271.776 271.376 271.104 267.024 271.104H258.576V288.768H264.336Z" stroke="#FF3F6D" stroke-width="2" mask="url(#path-1-outside-1)"/>
<path d="M351.497 278.112C352.841 278.112 353.801 278.496 354.377 279.264C355.017 280.032 355.336 281.024 355.336 282.24V295.008C355.336 296.416 354.824 297.6 353.8 298.56C352.84 299.52 351.625 300 350.153 300H307.721C306.441 300 305.416 299.712 304.648 299.136C303.88 298.496 303.497 297.536 303.497 296.256V292.512C303.497 291.232 303.88 290.304 304.648 289.728C305.416 289.088 306.441 288.768 307.721 288.768H309.448V244.032H307.721C306.441 244.032 305.416 243.744 304.648 243.168C303.88 242.528 303.497 241.568 303.497 240.288V236.544C303.497 235.264 303.88 234.336 304.648 233.76C305.416 233.12 306.409 232.8 307.625 232.8H349.577C351.049 232.8 352.264 233.28 353.224 234.24C354.248 235.2 354.76 236.416 354.76 237.888V248.832C354.76 250.112 354.44 251.136 353.8 251.904C353.224 252.672 352.296 253.056 351.016 253.056H347.273C345.993 253.056 345.033 252.672 344.393 251.904C343.817 251.136 343.529 250.112 343.529 248.832V244.032H322.888V259.584H338.921C340.137 259.584 341.129 260 341.897 260.832C342.729 261.6 343.145 262.56 343.145 263.712V266.688C343.145 267.904 342.729 268.896 341.897 269.664C341.129 270.432 340.137 270.816 338.921 270.816H322.888V288.768H344.009V282.24C344.009 281.024 344.296 280.032 344.872 279.264C345.512 278.496 346.505 278.112 347.849 278.112H351.497Z" stroke="#FF3F6D" stroke-width="2" mask="url(#path-1-outside-1)"/>
<path d="M423.13 288.768C425.946 288.768 427.354 290.016 427.354 292.512V296.256C427.354 297.536 426.97 298.496 426.202 299.136C425.434 299.712 424.41 300 423.13 300H412.186C411.482 300 410.81 299.84 410.17 299.52C409.594 299.136 409.146 298.624 408.826 297.984L399.418 281.376C398.074 279.072 396.954 277.408 396.058 276.384C395.226 275.296 394.266 274.592 393.178 274.272C392.154 273.888 390.714 273.696 388.858 273.696H386.17V288.768H387.898C390.65 288.768 392.026 290.016 392.026 292.512V296.256C392.026 298.752 390.65 300 387.898 300H371.002C369.722 300 368.698 299.712 367.93 299.136C367.162 298.496 366.778 297.536 366.778 296.256V292.512C366.778 291.232 367.162 290.304 367.93 289.728C368.698 289.088 369.722 288.768 371.002 288.768H372.73V244.032H371.002C369.722 244.032 368.698 243.744 367.93 243.168C367.162 242.528 366.778 241.568 366.778 240.288V236.544C366.778 235.264 367.162 234.336 367.93 233.76C368.698 233.12 369.69 232.8 370.906 232.8H394.426C402.682 232.8 408.922 234.432 413.146 237.696C417.37 240.96 419.482 245.792 419.482 252.192C419.482 256.608 418.298 260.384 415.93 263.52C413.562 266.592 410.266 268.832 406.042 270.24C407.194 270.752 408.218 271.552 409.114 272.64C410.074 273.664 411.066 275.072 412.09 276.864L418.714 288.768H423.13ZM393.274 262.464C397.626 262.464 400.794 261.664 402.778 260.064C404.762 258.4 405.754 255.84 405.754 252.384C405.754 249.568 404.794 247.488 402.874 246.144C400.954 244.736 397.978 244.032 393.946 244.032H386.17V262.464H393.274Z" stroke="#FF3F6D" stroke-width="2" mask="url(#path-1-outside-1)"/>
<path d="M462.095 260.16C467.855 261.952 472.271 263.744 475.343 265.536C478.415 267.328 480.591 269.44 481.871 271.872C483.151 274.24 483.791 277.312 483.791 281.088C483.791 284.8 482.735 288.192 480.623 291.264C478.575 294.272 475.727 296.64 472.079 298.368C468.431 300.096 464.335 300.96 459.791 300.96C454.991 300.96 450.735 300.32 447.023 299.04C443.311 297.696 440.431 295.808 438.383 293.376C436.399 290.944 435.407 288.16 435.407 285.024C435.407 282.4 436.143 280.288 437.615 278.688C439.151 277.088 441.135 276.288 443.567 276.288C445.999 276.288 447.951 276.96 449.423 278.304C450.895 279.648 451.631 281.408 451.631 283.584C451.631 284.928 451.311 286.24 450.671 287.52C452.975 288.992 455.791 289.728 459.119 289.728C462.767 289.728 465.551 289.056 467.471 287.712C469.391 286.304 470.351 284.352 470.351 281.856C470.351 280.384 470.063 279.2 469.487 278.304C468.911 277.408 467.823 276.576 466.223 275.808C464.687 275.04 462.287 274.144 459.023 273.12C453.455 271.328 449.039 269.504 445.775 267.648C442.511 265.728 440.111 263.52 438.575 261.024C437.103 258.464 436.367 255.36 436.367 251.712C436.367 247.808 437.423 244.352 439.535 241.344C441.647 238.336 444.591 236 448.367 234.336C452.207 232.672 456.559 231.84 461.423 231.84C465.583 231.84 469.263 232.512 472.463 233.856C475.727 235.2 478.255 237.056 480.047 239.424C481.903 241.792 482.831 244.512 482.831 247.584C482.831 250.208 482.063 252.32 480.527 253.92C478.991 255.52 477.007 256.32 474.575 256.32C472.207 256.32 470.255 255.648 468.719 254.304C467.247 252.96 466.511 251.2 466.511 249.024C466.511 247.68 466.831 246.368 467.471 245.088C466.127 243.744 463.695 243.072 460.175 243.072C457.039 243.072 454.543 243.776 452.687 245.184C450.831 246.528 449.903 248.384 449.903 250.752C449.903 252.288 450.223 253.568 450.863 254.592C451.567 255.552 452.751 256.448 454.415 257.28C456.143 258.112 458.703 259.072 462.095 260.16Z" stroke="#FF3F6D" stroke-width="2" mask="url(#path-1-outside-1)"/>
</svg>